<svg width="32" height="32" viewBox="0 0 32 32" fill="none" xmlns="http://www.w3.org/2000/svg">
<g clip-path="url(#clip0_171843_8487)">
<path d="M16.0003 14.7549C16.1997 14.7545 16.394 14.8165 16.5545 14.9315L24.123 20.3655C24.2215 20.4362 24.3046 20.5251 24.3678 20.6272C24.4309 20.7292 24.4727 20.8423 24.4909 20.96C24.5276 21.1978 24.4656 21.44 24.3186 21.6334C24.1716 21.8267 23.9516 21.9554 23.7071 21.9911C23.4625 22.0267 23.2134 21.9665 23.0145 21.8236L16.0003 16.7926L8.98602 21.8236C8.88754 21.8943 8.7757 21.9455 8.65687 21.9743C8.53803 22.003 8.41455 22.0087 8.29345 21.9911C8.17235 21.9734 8.05602 21.9327 7.95109 21.8714C7.84616 21.81 7.75469 21.7291 7.68191 21.6334C7.60912 21.5376 7.55644 21.4289 7.52688 21.3134C7.49732 21.1978 7.49146 21.0778 7.50962 20.96C7.52779 20.8423 7.56963 20.7292 7.63275 20.6272C7.69588 20.5251 7.77905 20.4362 7.87752 20.3654L15.446 14.9315C15.6066 14.8165 15.8008 14.7545 16.0003 14.7549Z" fill="#FF3D00"/>
<path d="M16 10C16.1994 9.99967 16.3937 10.0616 16.5543 10.1766L24.1228 15.6106C24.3216 15.7535 24.454 15.9674 24.4907 16.2051C24.5273 16.4429 24.4654 16.6851 24.3184 16.8785C24.1714 17.0718 23.9514 17.2005 23.7068 17.2362C23.4623 17.2718 23.2131 17.2116 23.0143 17.0687L16 12.0377L8.98577 17.0687C8.78689 17.2116 8.53777 17.2718 8.2932 17.2362C8.04863 17.2005 7.82866 17.0718 7.68166 16.8785C7.53467 16.6851 7.47269 16.4429 7.50938 16.2051C7.54606 15.9674 7.6784 15.7535 7.87728 15.6106L15.4458 10.1766C15.6063 10.0616 15.8006 9.99967 16 10Z" fill="#FF3D00"/>
</g>
<defs>
<clipPath id="clip0_171843_8487">
<rect width="17" height="12" fill="white" transform="translate(24.5 22) rotate(-180)"/>
</clipPath>
</defs>
</svg>
