<svg width="32" height="32" viewBox="0 0 32 32" fill="none" xmlns="http://www.w3.org/2000/svg">
<g clip-path="url(#clip0_171843_7940)">
<path d="M15.9997 17.2451C15.8003 17.2455 15.606 17.1835 15.4455 17.0685L7.877 11.6345C7.77852 11.5638 7.69535 11.4749 7.63223 11.3728C7.5691 11.2708 7.52726 11.1577 7.5091 11.04C7.47241 10.8022 7.53439 10.56 7.68138 10.3666C7.82838 10.1733 8.04835 10.0446 8.29292 10.0089C8.53749 9.97327 8.78661 10.0335 8.98549 10.1764L15.9997 15.2074L23.014 10.1764C23.1125 10.1057 23.2243 10.0545 23.3431 10.0257C23.462 9.99698 23.5855 9.99128 23.7066 10.0089C23.8277 10.0266 23.944 10.0673 24.0489 10.1286C24.1538 10.19 24.2453 10.2709 24.3181 10.3666C24.3909 10.4624 24.4436 10.5711 24.4731 10.6866C24.5027 10.8022 24.5085 10.9222 24.4904 11.04C24.4722 11.1577 24.4304 11.2708 24.3672 11.3728C24.3041 11.4749 24.221 11.5638 24.1225 11.6346L16.554 17.0685C16.3934 17.1835 16.1992 17.2455 15.9997 17.2451Z" fill="#7AE229"/>
<path d="M16 22C15.8006 22.0003 15.6063 21.9384 15.4457 21.8234L7.87724 16.3894C7.67837 16.2465 7.54603 16.0326 7.50934 15.7949C7.47266 15.5571 7.53463 15.3149 7.68163 15.1215C7.82862 14.9282 8.0486 14.7995 8.29317 14.7638C8.53773 14.7282 8.78686 14.7884 8.98574 14.9313L16 19.9623L23.0142 14.9313C23.2131 14.7884 23.4622 14.7282 23.7068 14.7638C23.9514 14.7995 24.1713 14.9282 24.3183 15.1215C24.4653 15.3149 24.5273 15.5571 24.4906 15.7949C24.4539 16.0326 24.3216 16.2465 24.1227 16.3894L16.5542 21.8234C16.3937 21.9384 16.1994 22.0003 16 22Z" fill="#7AE229"/>
</g>
<defs>
<clipPath id="clip0_171843_7940">
<rect width="17" height="12" fill="white" transform="translate(7.5 10)"/>
</clipPath>
</defs>
</svg>
